<?xml version="1.0" encoding="UTF-8" standalone="no"?>
<!DOCTYPE svg PUBLIC "-//W3C//DTD SVG 1.1//EN" "http://www.w3.org/Graphics/SVG/1.1/DTD/svg11.dtd">
<svg xmlns="http://www.w3.org/2000/svg" version="1.1" viewBox="0.00 0.00 2322.00 389.00" width="300" height="50" preserveAspectRatio="xMidYMid meet">
<path fill="#971937" d="
  M 1583.94 155.76
  C 1582.23 148.40 1587.43 145.47 1593.70 146.81
  Q 1598.66 147.86 1598.74 153.53
  Q 1598.84 160.70 1598.72 163.38
  A 0.37 0.37 0.0 0 0 1599.09 163.77
  Q 1615.35 163.81 1628.48 162.90
  Q 1650.27 161.39 1669.92 155.89
  Q 1689.08 150.53 1710.31 142.37
  Q 1722.22 137.79 1733.98 137.77
  A 0.74 0.73 -0.4 0 0 1734.71 137.04
  L 1734.71 134.05
  A 1.04 1.04 0.0 0 1 1735.75 133.01
  L 1741.13 133.01
  A 1.31 1.31 0.0 0 1 1742.44 134.32
  L 1742.44 137.57
  A 0.68 0.68 0.0 0 0 1743.12 138.25
  C 1746.66 138.24 1749.85 138.02 1751.71 141.64
  Q 1752.30 142.78 1752.31 145.95
  Q 1752.40 166.05 1752.32 186.93
  A 2.14 2.13 20.1 0 0 1753.10 188.60
  L 1757.35 192.15
  A 4.10 4.10 0.0 0 1 1758.81 195.06
  Q 1759.29 204.09 1758.35 211.60
  A 1.72 1.67 -21.8 0 1 1757.94 212.52
  Q 1757.44 213.10 1756.81 213.39
  A 1.10 1.08 83.6 0 0 1756.21 214.16
  Q 1755.77 216.42 1755.73 218.25
  Q 1755.41 233.99 1755.59 252.00
  C 1755.63 256.43 1751.55 257.04 1748.26 257.01
  Q 1735.74 256.90 1728.57 256.63
  Q 1724.67 256.49 1724.74 251.96
  Q 1724.85 245.05 1724.77 237.79
  A 0.56 0.56 0.0 0 0 1724.18 237.23
  C 1719.04 237.44 1711.73 238.19 1711.61 231.15
  Q 1711.51 224.94 1711.55 222.41
  A 0.87 0.87 0.0 0 0 1710.68 221.53
  L 1376.85 221.53
  A 0.56 0.55 -0.5 0 0 1376.29 222.09
  Q 1376.31 226.60 1376.43 230.77
  Q 1376.60 236.67 1370.34 236.84
  Q 1360.45 237.11 1349.51 237.15
  A 0.90 0.90 0.0 0 0 1348.61 238.05
  Q 1348.57 250.49 1348.59 251.50
  Q 1348.65 256.28 1344.20 256.60
  Q 1336.70 257.15 1326.26 256.93
  Q 1323.27 256.87 1320.58 255.57
  A 1.95 1.84 83.6 0 1 1319.85 254.95
  Q 1318.84 253.52 1318.83 252.14
  Q 1318.74 234.07 1318.88 205.96
  A 3.75 3.74 15.7 0 0 1317.06 202.73
  Q 1314.73 201.35 1312.38 198.90
  C 1309.75 196.16 1310.20 191.90 1313.71 190.42
  Q 1321.40 187.18 1332.06 183.05
  A 0.42 0.41 -24.3 0 0 1332.28 182.48
  Q 1321.53 161.32 1315.22 149.23
  Q 1312.65 144.31 1317.51 142.27
  Q 1321.48 140.61 1351.48 127.20
  C 1354.73 125.75 1356.84 128.43 1358.40 131.42
  Q 1370.32 154.34 1381.23 174.61
  A 2.66 2.66 0.0 0 0 1383.61 176.02
  Q 1385.61 175.99 1431.04 176.01
  Q 1433.58 176.02 1434.92 174.94
  Q 1440.79 170.25 1445.91 166.42
  C 1449.65 163.60 1454.73 163.04 1459.76 163.03
  Q 1529.16 162.94 1570.74 163.02
  A 0.56 0.56 0.0 0 0 1571.31 162.46
  C 1571.34 158.39 1571.98 155.34 1576.68 154.75
  Q 1580.26 154.31 1583.32 156.21
  A 0.42 0.41 -80.8 0 0 1583.94 155.76
  Z
  M 1358.6499 139.4171
  A 0.61 0.61 0.0 0 0 1357.8245 139.1663
  L 1355.7074 140.2967
  A 0.61 0.61 0.0 0 0 1355.4566 141.1221
  L 1378.3101 183.9229
  A 0.61 0.61 0.0 0 0 1379.1355 184.1737
  L 1381.2526 183.0433
  A 0.61 0.61 0.0 0 0 1381.5034 182.2179
  L 1358.6499 139.4171
  Z
  M 1369.98 175.53
  L 1352.38 142.70
  A 0.97 0.96 -25.8 0 0 1351.14 142.27
  L 1330.43 151.38
  A 0.78 0.77 -25.3 0 0 1330.05 152.43
  L 1342.83 177.51
  A 0.94 0.93 -26.7 0 0 1344.09 177.92
  Q 1347.78 176.05 1352.25 175.99
  Q 1359.80 175.90 1369.56 176.20
  A 0.46 0.46 0.0 0 0 1369.98 175.53
  Z
  M 1734.60 143.61
  A 1.24 1.24 0.0 0 0 1733.40 142.37
  Q 1723.11 142.01 1715.04 144.82
  Q 1687.05 154.56 1685.56 155.04
  Q 1667.99 160.59 1658.90 162.35
  Q 1650.23 164.02 1642.23 165.38
  C 1629.64 167.53 1617.73 167.44 1599.35 167.81
  A 0.57 0.57 0.0 0 0 1598.79 168.38
  L 1598.79 170.68
  A 0.58 0.58 0.0 0 0 1599.38 171.26
  C 1604.07 171.15 1608.70 170.96 1612.94 172.56
  A 3.93 3.90 56.0 0 0 1614.20 172.81
  Q 1626.48 173.24 1641.42 171.12
  Q 1668.08 167.33 1692.25 158.75
  Q 1710.15 152.39 1712.77 151.55
  C 1718.92 149.57 1728.32 146.75 1733.64 148.47
  A 0.74 0.73 -80.9 0 0 1734.60 147.77
  L 1734.60 143.61
  Z
  M 1743.03 143.01
  A 0.32 0.32 0.0 0 0 1742.71 143.33
  L 1742.71 178.87
  A 0.32 0.32 0.0 0 0 1742.85 179.14
  L 1747.18 182.20
  A 0.32 0.32 0.0 0 0 1747.68 181.94
  L 1747.68 143.33
  A 0.32 0.32 0.0 0 0 1747.36 143.01
  L 1743.03 143.01
  Z
  M 1406.46 196.55
  L 1752.77 196.67
  A 0.33 0.33 0.0 0 0 1753.07 196.19
  L 1752.84 195.74
  A 0.97 0.96 76.4 0 0 1751.98 195.21
  L 1405.54 195.30
  L 1349.34 195.43
  A 2.45 2.44 76.5 0 1 1347.16 194.09
  L 1321.82 144.35
  A 0.85 0.84 62.7 0 0 1320.68 143.98
  L 1318.11 145.28
  A 0.52 0.52 0.0 0 0 1317.89 145.98
  L 1343.11 195.49
  A 1.93 1.90 -13.3 0 0 1344.82 196.53
  L 1406.46 196.55
  Z
  M 1590.56 150.23
  A 0.17 0.17 0.0 0 0 1590.50 150.56
  Q 1593.76 152.03 1593.70 154.35
  Q 1593.62 156.88 1593.83 174.18
  A 0.32 0.32 0.0 0 0 1594.15 174.50
  L 1594.51 174.50
  A 0.37 0.37 0.0 0 0 1594.88 174.13
  Q 1595.06 160.88 1594.83 154.53
  Q 1594.67 150.02 1590.56 150.23
  Z
  M 1630.59 176.52
  C 1633.69 176.83 1638.16 175.82 1641.79 175.78
  Q 1686.90 175.35 1732.23 175.52
  C 1732.94 175.53 1733.46 175.75 1734.09 175.90
  A 0.42 0.42 0.0 0 0 1734.61 175.49
  L 1734.61 152.70
  A 1.20 1.19 0.5 0 0 1733.43 151.51
  Q 1724.03 151.42 1715.13 154.67
  Q 1708.76 157.00 1687.79 163.85
  Q 1676.98 167.38 1668.68 169.33
  Q 1652.17 173.20 1649.25 173.52
  C 1641.30 174.40 1630.76 175.32 1630.31 175.82
  A 0.42 0.42 0.0 0 0 1630.59 176.52
  Z
  M 1577.91 159.57
  Q 1581.36 160.89 1581.34 164.05
  Q 1581.30 172.72 1581.43 180.42
  C 1581.52 185.39 1576.80 184.16 1573.93 184.58
  A 0.44 0.44 0.0 0 0 1573.96 185.46
  C 1578.36 185.79 1582.57 185.93 1582.59 180.00
  Q 1582.62 171.89 1582.52 163.73
  Q 1582.46 159.16 1578.02 159.02
  A 0.29 0.28 56.4 0 0 1577.91 159.57
  Z
  M 1427.51 179.98
  A 0.62 0.62 0.0 0 0 1426.89 179.36
  L 1384.97 179.36
  A 0.62 0.62 0.0 0 0 1384.35 179.98
  L 1384.35 180.02
  A 0.62 0.62 0.0 0 0 1384.97 180.64
  L 1426.89 180.64
  A 0.62 0.62 0.0 0 0 1427.51 180.02
  L 1427.51 179.98
  Z
  M 1364.08 191.84
  Q 1366.15 192.55 1368.39 191.27
  A 1.50 1.45 -6.0 0 0 1369.07 190.46
  Q 1369.86 188.07 1371.91 183.03
  C 1372.80 180.85 1370.92 179.64 1368.99 179.54
  Q 1366.23 179.40 1350.56 179.47
  C 1348.71 179.48 1347.15 180.02 1345.70 180.83
  A 0.34 0.34 0.0 0 0 1345.95 181.46
  L 1349.29 180.62
  A 2.37 2.33 37.4 0 1 1349.86 180.55
  L 1369.43 180.55
  A 1.42 1.42 0.0 0 1 1370.74 182.51
  L 1368.05 189.08
  A 1.93 1.80 -12.8 0 1 1367.65 189.67
  Q 1366.50 190.85 1364.14 191.19
  A 0.34 0.34 0.0 0 0 1364.08 191.84
  Z
  M 1743.17 191.24
  Q 1739.50 188.72 1734.87 184.83
  Q 1732.50 182.85 1732.57 180.48
  A 0.48 0.47 -89.4 0 0 1732.10 179.99
  L 1616.06 179.99
  A 0.69 0.68 -76.6 0 0 1615.45 180.37
  L 1610.16 190.91
  A 0.41 0.40 -76.8 0 0 1610.52 191.50
  L 1743.09 191.50
  A 0.14 0.14 0.0 0 0 1743.17 191.24
  Z
  M 1608.58 181.43
  A 0.16 0.16 0.0 0 0 1608.27 181.37
  Q 1606.88 184.42 1604.71 184.35
  Q 1602.35 184.26 1586.15 184.38
  A 0.30 0.30 0.0 0 0 1585.85 184.68
  L 1585.85 185.02
  A 0.35 0.35 0.0 0 0 1586.19 185.37
  Q 1598.60 185.59 1604.54 185.41
  Q 1608.76 185.28 1608.58 181.43
  Z
  M 1417.34 185.37
  Q 1416.23 186.83 1416.79 189.48
  A 0.42 0.42 0.0 0 0 1417.61 189.45
  Q 1417.96 187.00 1418.52 186.26
  Q 1419.08 185.52 1421.34 184.53
  A 0.42 0.42 0.0 0 0 1421.15 183.73
  Q 1418.45 183.91 1417.34 185.37
  Z
  M 1321.78 191.58
  L 1335.55 191.58
  A 0.15 0.15 0.0 0 0 1335.70 191.43
  L 1335.70 191.17
  A 0.39 0.39 0.0 0 0 1335.27 190.78
  C 1332.34 191.11 1329.87 191.58 1327.34 190.59
  A 1.01 1.01 0.0 0 1 1327.31 188.73
  L 1333.51 186.04
  A 0.13 0.13 0.0 0 0 1333.58 185.88
  L 1333.47 185.58
  A 0.34 0.33 -23.4 0 0 1333.01 185.40
  L 1321.69 191.17
  A 0.22 0.21 -58.1 0 0 1321.78 191.58
  Z
  M 1602.7600 189.4946
  A 0.48 0.48 0.0 0 0 1602.2809 189.0137
  L 1586.5409 188.9863
  A 0.48 0.48 0.0 0 0 1586.0600 189.4654
  L 1586.0600 189.5054
  A 0.48 0.48 0.0 0 0 1586.5391 189.9863
  L 1602.2791 190.0137
  A 0.48 0.48 0.0 0 0 1602.7600 189.5346
  L 1602.7600 189.4946
  Z
  M 1579.68 191.35
  A 0.24 0.24 0.0 0 0 1579.44 191.11
  Q 1508.03 189.95 1435.00 189.99
  Q 1433.89 189.99 1424.31 191.07
  A 0.41 0.40 86.9 0 0 1423.95 191.48
  L 1423.95 191.82
  A 0.18 0.17 90.0 0 0 1424.12 192.00
  L 1579.53 192.00
  A 0.15 0.15 0.0 0 0 1579.68 191.85
  L 1579.68 191.35
  Z
  M 1339.2400 195.9916
  A 0.65 0.65 0.0 0 0 1338.5912 195.3405
  L 1315.1512 195.2995
  A 0.65 0.65 0.0 0 0 1314.5001 195.9484
  L 1314.5000 196.0084
  A 0.65 0.65 0.0 0 0 1315.1488 196.6595
  L 1338.5888 196.7005
  A 0.65 0.65 0.0 0 0 1339.2399 196.0516
  L 1339.2400 195.9916
  Z
  M 1425.12 209.09
  Q 1425.02 208.99 1424.18 208.87
  Q 1420.96 208.42 1414.75 208.35
  C 1396.65 208.14 1384.22 208.34 1367.09 207.71
  Q 1347.60 206.99 1327.41 207.19
  A 0.28 0.28 0.0 0 0 1327.16 207.61
  L 1327.48 208.21
  A 0.07 0.05 69.7 0 0 1327.53 208.24
  Q 1337.68 208.37 1347.85 208.70
  C 1354.26 208.92 1359.03 208.61 1364.48 208.91
  Q 1367.27 209.07 1376.96 209.14
  Q 1393.10 209.26 1396.69 209.35
  Q 1406.14 209.60 1410.80 209.48
  Q 1424.31 209.13 1424.93 209.37
  A 0.17 0.17 0.0 0 0 1425.12 209.09
  Z
  M 1749.5301 207.7965
  A 0.37 0.37 0.0 0 0 1749.1608 207.4259
  L 1730.9408 207.3941
  A 0.37 0.37 0.0 0 0 1730.5701 207.7635
  L 1730.5699 207.9035
  A 0.37 0.37 0.0 0 0 1730.9392 208.2741
  L 1749.1592 208.3059
  A 0.37 0.37 0.0 0 0 1749.5299 207.9365
  L 1749.5301 207.7965
  Z
  M 1376.2200 211.1630
  A 0.59 0.59 0.0 0 0 1375.6310 210.5720
  L 1327.5311 210.4880
  A 0.59 0.59 0.0 0 0 1326.9401 211.0770
  L 1326.9400 211.1170
  A 0.59 0.59 0.0 0 0 1327.5290 211.7080
  L 1375.6289 211.7920
  A 0.59 0.59 0.0 0 0 1376.2199 211.2030
  L 1376.2200 211.1630
  Z
  M 1749.7499 211.2337
  A 0.53 0.53 0.0 0 0 1749.2180 210.7055
  L 1718.0182 210.8145
  A 0.53 0.53 0.0 0 0 1717.4901 211.3463
  L 1717.4901 211.3663
  A 0.53 0.53 0.0 0 0 1718.0220 211.8945
  L 1749.2218 211.7855
  A 0.53 0.53 0.0 0 0 1749.7499 211.2537
  L 1749.7499 211.2337
  Z
  M 1748.98 216.45
  A 0.43 0.43 0.0 0 0 1748.55 216.02
  L 1327.83 216.02
  A 0.43 0.43 0.0 0 0 1327.40 216.45
  L 1327.40 217.23
  A 0.43 0.43 0.0 0 0 1327.83 217.66
  L 1748.55 217.66
  A 0.43 0.43 0.0 0 0 1748.98 217.23
  L 1748.98 216.45
  Z
  M 1342.0000 221.8273
  A 0.71 0.71 0.0 0 0 1341.2887 221.1186
  L 1328.1887 221.1414
  A 0.71 0.71 0.0 0 0 1327.4800 221.8527
  L 1327.4800 221.8927
  A 0.71 0.71 0.0 0 0 1328.1913 222.6014
  L 1341.2913 222.5786
  A 0.71 0.71 0.0 0 0 1342.0000 221.8673
  L 1342.0000 221.8273
  Z
  M 1748.4495 221.7052
  A 0.78 0.78 0.0 0 0 1747.6641 220.9307
  L 1733.5244 221.0294
  A 0.78 0.78 0.0 0 0 1732.7499 221.8148
  L 1732.7505 221.8948
  A 0.78 0.78 0.0 0 0 1733.5359 222.6693
  L 1747.6756 222.5706
  A 0.78 0.78 0.0 0 0 1748.4501 221.7852
  L 1748.4495 221.7052
  Z
  M 1349.05 233.86
  Q 1352.20 233.45 1353.10 231.89
  A 1.58 1.58 0.0 0 0 1353.30 231.16
  L 1353.49 222.17
  A 0.58 0.58 0.0 0 0 1352.91 221.58
  L 1352.63 221.58
  A 0.52 0.52 0.0 0 0 1352.11 222.11
  Q 1352.18 227.14 1351.93 229.97
  A 2.99 2.98 79.9 0 1 1350.23 232.41
  Q 1349.71 232.66 1348.86 233.45
  A 0.24 0.24 0.0 0 0 1349.05 233.86
  Z
  M 1373.2058 222.1636
  A 0.54 0.54 0.0 0 0 1372.6593 221.6302
  L 1372.6193 221.6307
  A 0.54 0.54 0.0 0 0 1372.0859 222.1772
  L 1372.2142 232.6764
  A 0.54 0.54 0.0 0 0 1372.7607 233.2098
  L 1372.8007 233.2093
  A 0.54 0.54 0.0 0 0 1373.3341 232.6628
  L 1373.2058 222.1636
  Z
  M 1715.5347 222.2839
  A 0.53 0.53 0.0 0 0 1715.0084 221.7502
  L 1714.9884 221.7501
  A 0.53 0.53 0.0 0 0 1714.4547 222.2764
  L 1714.3853 232.2161
  A 0.53 0.53 0.0 0 0 1714.9116 232.7498
  L 1714.9316 232.7499
  A 0.53 0.53 0.0 0 0 1715.4653 232.2236
  L 1715.5347 222.2839
  Z
  M 1748.2599 225.9529
  A 0.98 0.98 0.0 0 0 1747.2765 224.9763
  L 1733.6966 225.0237
  A 0.98 0.98 0.0 0 0 1732.7200 226.0071
  L 1732.7201 226.0471
  A 0.98 0.98 0.0 0 0 1733.7035 227.0237
  L 1747.2834 226.9763
  A 0.98 0.98 0.0 0 0 1748.2600 225.9929
  L 1748.2599 225.9529
  Z
  M 1341.63 226.26
  A 0.56 0.56 0.0 0 0 1341.07 225.70
  L 1328.45 225.70
  A 0.56 0.56 0.0 0 0 1327.89 226.26
  L 1327.89 226.30
  A 0.56 0.56 0.0 0 0 1328.45 226.86
  L 1341.07 226.86
  A 0.56 0.56 0.0 0 0 1341.63 226.30
  L 1341.63 226.26
  Z
  M 1748.0391 228.7903
  A 0.90 0.90 0.0 0 0 1747.1297 227.8998
  L 1733.7104 228.0403
  A 0.90 0.90 0.0 0 0 1732.8199 228.9497
  L 1732.8209 229.0497
  A 0.90 0.90 0.0 0 0 1733.7303 229.9402
  L 1747.1496 229.7997
  A 0.90 0.90 0.0 0 0 1748.0401 228.8903
  L 1748.0391 228.7903
  Z
  M 1341.75 230.81
  A 0.46 0.46 0.0 0 0 1341.29 230.35
  L 1328.31 230.35
  A 0.46 0.46 0.0 0 0 1327.85 230.81
  L 1327.85 231.19
  A 0.46 0.46 0.0 0 0 1328.31 231.65
  L 1341.29 231.65
  A 0.46 0.46 0.0 0 0 1341.75 231.19
  L 1341.75 230.81
  Z
  M 1748.2900 233.3735
  A 0.60 0.60 0.0 0 0 1747.6911 232.7724
  L 1733.4511 232.7476
  A 0.60 0.60 0.0 0 0 1732.8501 233.3465
  L 1732.8500 233.4065
  A 0.60 0.60 0.0 0 0 1733.4489 234.0076
  L 1747.6889 234.0324
  A 0.60 0.60 0.0 0 0 1748.2899 233.4335
  L 1748.2900 233.3735
  Z
  M 1341.43 235.37
  A 0.62 0.62 0.0 0 0 1340.81 234.75
  L 1328.11 234.75
  A 0.62 0.62 0.0 0 0 1327.49 235.37
  L 1327.49 235.41
  A 0.62 0.62 0.0 0 0 1328.11 236.03
  L 1340.81 236.03
  A 0.62 0.62 0.0 0 0 1341.43 235.41
  L 1341.43 235.37
  Z
  M 1748.5301 236.4877
  A 0.70 0.70 0.0 0 0 1747.8326 235.7852
  L 1733.3727 235.7348
  A 0.70 0.70 0.0 0 0 1732.6702 236.4323
  L 1732.6699 236.5323
  A 0.70 0.70 0.0 0 0 1733.3674 237.2348
  L 1747.8273 237.2852
  A 0.70 0.70 0.0 0 0 1748.5298 236.5877
  L 1748.5301 236.4877
  Z
  M 1340.8499 240.7257
  A 0.42 0.42 0.0 0 0 1340.4277 240.3079
  L 1328.1478 240.3722
  A 0.42 0.42 0.0 0 0 1327.7300 240.7943
  L 1327.7301 240.8143
  A 0.42 0.42 0.0 0 0 1328.1523 241.2321
  L 1340.4322 241.1678
  A 0.42 0.42 0.0 0 0 1340.8500 240.7457
  L 1340.8499 240.7257
  Z
  M 1747.8700 241.0970
  A 0.84 0.84 0.0 0 0 1747.0285 240.2585
  L 1733.8685 240.2815
  A 0.84 0.84 0.0 0 0 1733.0300 241.1230
  L 1733.0300 241.1630
  A 0.84 0.84 0.0 0 0 1733.8715 242.0015
  L 1747.0315 241.9785
  A 0.84 0.84 0.0 0 0 1747.8700 241.1370
  L 1747.8700 241.0970
  Z
  M 1747.7500 244.8728
  A 0.57 0.57 0.0 0 0 1747.1810 244.3018
  L 1733.6810 244.2782
  A 0.57 0.57 0.0 0 0 1733.1100 244.8472
  L 1733.1100 244.8872
  A 0.57 0.57 0.0 0 0 1733.6790 245.4582
  L 1747.1790 245.4818
  A 0.57 0.57 0.0 0 0 1747.7500 244.9128
  L 1747.7500 244.8728
  Z
  M 1341.0994 244.9790
  A 0.53 0.53 0.0 0 0 1340.5639 244.4546
  L 1328.0646 244.5855
  A 0.53 0.53 0.0 0 0 1327.5402 245.1210
  L 1327.5406 245.1610
  A 0.53 0.53 0.0 0 0 1328.0761 245.6854
  L 1340.5754 245.5545
  A 0.53 0.53 0.0 0 0 1341.0998 245.0190
  L 1341.0994 244.9790
  Z
  M 1341.3194 249.2362
  A 0.55 0.55 0.0 0 0 1340.7637 248.6920
  L 1327.7644 248.8281
  A 0.55 0.55 0.0 0 0 1327.2202 249.3838
  L 1327.2206 249.4238
  A 0.55 0.55 0.0 0 0 1327.7763 249.9680
  L 1340.7756 249.8319
  A 0.55 0.55 0.0 0 0 1341.3198 249.2762
  L 1341.3194 249.2362
  Z
  M 1747.8300 249.2327
  A 0.50 0.50 0.0 0 0 1747.3309 248.7319
  L 1733.7509 248.7082
  A 0.50 0.50 0.0 0 0 1733.2500 249.2073
  L 1733.2500 249.2473
  A 0.50 0.50 0.0 0 0 1733.7491 249.7481
  L 1747.3291 249.7718
  A 0.50 0.50 0.0 0 0 1747.8300 249.2727
  L 1747.8300 249.2327
  Z"
/>
<path fill="#971937" d="
  M 824.77 198.95
  A 0.85 0.84 17.5 0 1 825.40 200.15
  Q 823.17 204.70 818.28 204.79
  Q 807.59 204.99 802.11 196.94
  C 795.05 186.54 798.85 170.83 805.52 160.74
  C 814.49 147.17 829.85 137.98 845.50 134.25
  Q 853.52 132.34 863.29 131.63
  C 883.41 130.18 923.61 128.49 931.75 152.50
  C 939.70 175.97 916.07 192.81 895.95 195.26
  A 0.60 0.59 -22.3 0 0 895.55 196.21
  C 902.83 205.64 905.22 219.01 909.00 227.98
  C 911.61 234.16 915.23 240.14 922.82 240.50
  Q 924.50 240.58 926.93 239.11
  A 0.88 0.87 68.4 0 1 928.23 239.68
  L 928.89 242.84
  A 0.88 0.88 0.0 0 1 928.77 243.51
  Q 927.79 244.96 926.46 245.95
  Q 918.16 252.13 907.97 248.89
  C 898.11 245.74 893.40 238.41 890.27 229.02
  Q 888.64 224.14 883.69 207.89
  C 882.34 203.46 880.63 198.20 875.73 197.07
  Q 872.06 196.23 866.63 196.24
  A 0.88 0.88 0.0 0 0 865.79 196.86
  Q 861.48 210.80 857.14 224.39
  Q 855.99 228.01 855.49 231.77
  C 854.66 238.08 861.33 238.31 865.53 238.58
  A 0.78 0.78 0.0 0 1 866.20 239.65
  L 864.76 243.16
  A 1.07 1.06 11.0 0 1 863.77 243.82
  L 820.35 243.82
  A 0.85 0.85 0.0 0 1 819.56 242.64
  L 821.07 238.95
  A 1.79 1.78 -76.3 0 1 822.87 237.85
  C 832.97 238.72 835.44 233.67 838.37 224.34
  Q 844.97 203.31 853.50 176.76
  Q 859.36 158.53 863.40 147.39
  Q 864.60 144.09 866.11 140.88
  A 0.52 0.52 0.0 0 0 865.59 140.15
  C 846.18 141.93 829.53 149.38 819.45 166.56
  Q 814.05 175.74 814.66 185.79
  C 815.02 191.91 818.28 197.97 824.77 198.95
  Z
  M 868.68 187.75
  A 0.33 0.32 -80.1 0 0 868.97 188.17
  C 879.85 188.95 889.03 189.25 899.10 184.09
  C 908.40 179.33 914.55 168.98 913.51 158.51
  C 911.97 142.85 896.76 140.00 883.92 140.28
  A 0.85 0.84 -81.9 0 0 883.13 140.88
  L 868.68 187.75
  Z"
/>
<path fill="#971937" d="
  M 314.84 156.76
  A 0.27 0.27 0.0 0 0 314.30 156.74
  Q 313.70 160.58 313.04 163.03
  Q 309.62 175.82 304.31 190.06
  Q 297.96 207.08 287.79 222.30
  C 276.85 238.67 261.71 251.46 242.62 256.36
  Q 237.75 257.60 229.93 257.63
  Q 219.91 257.65 211.61 252.66
  C 204.13 248.17 200.82 239.02 204.50 231.04
  C 206.44 226.82 210.37 222.87 215.33 223.32
  Q 218.27 223.59 219.91 226.22
  A 1.09 1.08 -38.0 0 1 219.74 227.57
  C 215.08 232.10 214.67 239.45 219.48 243.88
  C 229.37 253.00 247.71 247.32 257.90 240.68
  C 272.02 231.48 282.83 217.24 290.30 202.05
  Q 303.45 175.32 307.26 145.82
  A 0.68 0.67 7.3 0 0 306.68 145.07
  Q 300.50 144.23 274.38 141.15
  C 259.52 139.40 245.62 143.61 238.98 157.98
  C 236.15 164.10 236.30 172.84 240.13 178.77
  Q 245.29 186.75 255.18 186.15
  C 259.91 185.87 264.83 183.24 266.83 178.99
  A 1.01 1.01 0.0 0 1 268.20 178.52
  L 270.59 179.72
  A 1.23 1.23 0.0 0 1 271.11 181.42
  Q 262.54 196.58 245.28 191.86
  Q 236.68 189.51 231.63 182.23
  C 224.80 172.36 226.76 158.17 233.23 148.22
  C 242.14 134.52 256.00 131.64 271.50 133.01
  Q 277.44 133.53 292.65 135.48
  C 305.01 137.07 316.77 137.56 328.22 135.95
  A 0.41 0.41 0.0 0 1 328.69 136.32
  L 336.04 216.66
  A 0.40 0.40 0.0 0 0 336.77 216.86
  L 392.69 138.02
  A 2.58 2.57 17.7 0 1 394.79 136.94
  L 419.34 136.94
  A 0.86 0.85 -2.2 0 1 420.20 137.73
  Q 420.32 139.24 419.44 141.08
  A 1.14 1.13 5.6 0 1 418.69 141.69
  L 413.50 142.93
  A 4.64 4.64 0.0 0 0 410.42 145.37
  Q 408.93 148.35 408.21 151.72
  Q 400.73 187.04 393.65 222.18
  C 392.78 226.50 390.66 234.69 397.11 235.56
  Q 400.63 236.03 400.83 236.11
  A 0.82 0.81 10.5 0 1 401.36 236.87
  Q 401.37 238.87 400.64 240.22
  A 1.02 1.01 -75.5 0 1 399.75 240.75
  L 360.56 240.75
  A 1.07 1.07 0.0 0 1 359.53 239.37
  L 360.04 237.62
  A 1.98 1.96 7.1 0 1 361.87 236.21
  Q 368.63 235.97 370.78 233.95
  C 375.97 229.07 376.52 221.37 377.94 214.82
  Q 379.49 207.67 379.71 206.41
  Q 384.68 177.88 389.59 155.18
  A 0.25 0.25 0.0 0 0 389.13 154.99
  Q 386.42 159.34 384.88 161.63
  Q 359.05 199.87 330.05 240.14
  A 1.71 1.70 -72.1 0 1 328.67 240.85
  L 323.34 240.85
  A 0.87 0.87 0.0 0 1 322.47 240.06
  L 314.84 156.76
  Z"
/>
<path fill="#971937" d="
  M 723.55 230.22
  A 0.38 0.38 0.0 0 0 722.87 229.95
  Q 712.43 243.76 695.09 241.73
  C 687.90 240.88 682.54 234.86 680.93 228.06
  C 677.81 214.80 683.23 198.63 690.81 187.51
  C 697.98 177.00 711.48 166.86 724.74 168.06
  Q 731.84 168.71 735.76 174.62
  A 0.36 0.36 0.0 0 0 736.41 174.50
  Q 737.72 169.11 742.31 152.29
  C 742.95 149.94 743.81 145.79 742.16 144.13
  C 740.93 142.88 738.51 143.05 736.46 142.89
  A 0.70 0.70 0.0 0 1 735.82 142.14
  Q 735.93 140.44 736.71 139.40
  A 1.70 1.67 12.1 0 1 737.72 138.76
  L 763.56 133.32
  A 0.49 0.49 0.0 0 1 764.13 133.94
  Q 754.23 167.99 740.35 217.40
  C 739.53 220.34 738.04 224.39 737.36 228.07
  C 735.59 237.76 747.06 231.20 749.81 228.62
  A 0.94 0.94 0.0 0 1 751.29 228.88
  L 752.37 231.01
  A 1.38 1.38 0.0 0 1 752.05 232.68
  C 746.47 237.57 740.54 241.24 732.80 240.88
  Q 722.58 240.42 723.55 230.22
  Z
  M 701.66 230.49
  C 707.20 233.38 713.82 230.45 717.70 226.05
  C 724.37 218.47 727.94 208.26 730.62 198.40
  C 731.88 193.74 733.59 182.98 730.50 178.93
  C 726.23 173.35 717.65 176.00 713.32 179.87
  C 703.48 188.67 698.00 201.87 696.88 214.59
  C 696.51 218.86 697.20 228.17 701.66 230.49
  Z"
/>
<path fill="#971937" d="
  M 562.27 182.62
  A 0.31 0.31 0.0 0 0 562.81 182.90
  C 567.32 177.28 572.26 172.69 579.06 169.55
  C 584.60 166.99 594.56 166.63 599.19 171.37
  C 604.16 176.45 603.03 185.41 601.10 191.61
  Q 596.49 206.45 590.38 226.12
  Q 589.54 228.82 589.77 231.09
  A 2.60 2.59 84.3 0 0 592.60 233.42
  Q 598.52 232.85 603.35 228.52
  A 0.17 0.17 0.0 0 1 603.61 228.57
  L 605.34 231.98
  A 0.29 0.28 -35.6 0 1 605.28 232.32
  Q 598.93 238.33 592.12 240.70
  Q 588.96 241.80 583.52 241.46
  Q 573.56 240.84 574.11 230.93
  Q 574.49 223.97 577.26 215.50
  Q 584.68 192.72 585.22 190.95
  C 585.98 188.46 587.50 184.37 586.50 181.70
  C 585.35 178.66 582.81 178.28 579.84 178.86
  C 571.88 180.42 564.36 186.98 559.89 193.67
  Q 558.56 195.67 556.89 201.39
  Q 551.84 218.72 547.79 232.24
  C 546.88 235.29 546.59 237.60 545.74 240.11
  A 1.03 1.03 0.0 0 1 544.76 240.82
  L 529.71 240.82
  A 0.66 0.66 0.0 0 1 529.08 239.98
  Q 552.16 159.34 553.33 155.30
  C 554.11 152.63 554.89 150.28 554.62 147.59
  A 2.58 2.57 89.0 0 0 552.21 145.26
  L 547.45 144.99
  A 0.50 0.50 0.0 0 1 546.98 144.44
  Q 547.26 141.56 548.98 140.18
  A 1.52 1.51 18.6 0 1 549.59 139.88
  L 575.87 133.60
  A 0.54 0.53 -88.7 0 1 576.51 134.27
  L 562.27 182.62
  Z"
/>
<path fill="#971937" d="
  M 135.89 137.23
  A 0.44 0.44 0.0 0 1 136.44 137.77
  L 129.51 161.29
  A 0.24 0.23 -19.3 0 0 129.93 161.49
  C 134.42 155.17 144.17 150.41 150.55 156.73
  C 153.38 159.53 152.59 165.20 151.44 168.70
  Q 148.29 178.23 145.87 187.47
  A 1.68 1.67 6.3 0 0 147.56 189.57
  Q 149.77 189.48 151.98 187.95
  A 1.30 1.30 0.0 0 1 153.67 189.90
  C 149.93 193.90 144.09 196.18 139.19 193.46
  C 135.12 191.20 137.54 182.39 138.79 178.87
  Q 141.42 171.48 142.41 166.00
  Q 142.70 164.39 141.58 162.18
  A 1.66 1.64 -0.4 0 0 140.84 161.46
  C 137.00 159.56 131.77 163.92 129.36 166.63
  Q 127.49 168.74 126.06 174.23
  Q 124.53 180.13 120.91 192.86
  A 1.56 1.55 7.9 0 1 119.41 193.99
  L 111.96 193.99
  A 0.94 0.93 8.1 0 1 111.06 192.80
  L 124.61 146.81
  A 1.79 1.79 0.0 0 0 123.40 144.58
  L 121.37 143.98
  A 0.72 0.70 -77.9 0 1 120.87 143.19
  C 121.09 141.63 121.16 140.97 122.97 140.63
  Q 128.19 139.63 135.89 137.23
  Z"
/>
<path fill="#971937" d="
  M 92.95 144.28
  Q 88.30 144.19 85.41 144.41
  C 81.32 144.72 78.64 150.08 76.51 152.48
  Q 75.94 153.11 75.56 153.17
  A 0.97 0.97 0.0 0 1 74.54 151.84
  L 79.41 139.94
  A 0.61 0.61 0.0 0 1 79.97 139.57
  L 117.18 139.57
  A 1.54 1.54 0.0 0 1 118.72 141.20
  L 117.92 154.92
  A 0.78 0.78 0.0 0 1 116.42 155.19
  Q 114.58 150.98 112.76 147.50
  Q 111.49 145.07 109.84 144.62
  Q 107.82 144.07 104.38 144.29
  A 0.96 0.95 4.8 0 0 103.50 145.03
  Q 99.68 161.07 94.49 185.00
  C 93.72 188.56 94.04 191.79 98.45 191.87
  A 0.79 0.78 11.5 0 1 99.17 192.95
  L 99.01 193.34
  A 1.13 1.12 -78.6 0 1 97.97 194.04
  L 76.53 194.04
  A 1.09 1.09 0.0 0 1 76.30 191.88
  L 78.82 191.35
  A 3.69 3.66 7.7 0 0 81.32 189.46
  Q 83.09 186.09 84.29 181.02
  Q 88.73 162.39 93.47 144.98
  A 0.56 0.56 0.0 0 0 92.95 144.28
  Z"
/>
<path fill="#971937" d="
  M 515.55 168.96
  L 533.68 168.96
  A 0.55 0.55 0.0 0 1 534.17 169.76
  L 531.05 175.97
  A 0.98 0.98 0.0 0 1 530.17 176.52
  L 513.36 176.52
  A 0.80 0.79 8.4 0 0 512.60 177.08
  Q 505.46 201.01 500.60 216.57
  C 499.52 220.03 497.67 226.64 498.57 230.46
  A 3.50 3.14 -4.6 0 0 501.77 232.89
  Q 508.96 233.18 515.16 228.44
  A 1.04 1.03 57.6 0 1 516.71 228.79
  L 517.55 230.44
  A 1.58 1.57 56.9 0 1 517.15 232.37
  C 509.34 238.84 502.05 242.42 491.68 241.09
  C 485.51 240.29 481.02 237.06 481.27 230.26
  Q 481.47 224.51 483.34 218.30
  Q 491.89 189.98 495.82 177.22
  A 0.51 0.51 0.0 0 0 495.33 176.56
  L 487.05 176.56
  A 0.76 0.75 8.3 0 1 486.32 175.59
  L 487.42 171.86
  A 1.37 1.36 2.4 0 1 488.47 170.90
  Q 505.50 167.53 513.64 151.99
  A 0.42 0.41 -75.0 0 1 514.00 151.78
  L 519.24 151.78
  A 0.39 0.39 0.0 0 1 519.61 152.28
  L 514.94 168.15
  A 0.63 0.63 0.0 0 0 515.55 168.96
  Z"
/>
<path fill="#971937" d="
  M 189.22 184.33
  A 0.23 0.22 -43.8 0 1 189.21 184.57
  C 183.40 192.95 172.83 197.49 163.09 193.66
  C 157.70 191.55 155.49 185.32 155.93 179.90
  C 156.97 167.29 165.47 156.16 178.88 154.88
  C 183.92 154.40 189.91 157.16 189.38 163.01
  C 188.48 172.96 174.14 175.71 166.57 176.48
  A 0.95 0.94 87.6 0 0 165.73 177.40
  C 165.67 180.95 166.19 185.04 168.81 187.34
  C 171.79 189.95 177.19 189.23 180.31 187.54
  Q 183.61 185.74 187.09 182.53
  A 0.65 0.65 0.0 0 1 187.98 182.54
  Q 188.61 183.15 189.22 184.33
  Z
  M 166.45 172.75
  C 166.47 172.78 166.64 172.92 166.69 172.91
  C 171.60 172.15 177.98 170.30 180.70 166.01
  Q 182.96 162.43 181.02 160.18
  Q 179.08 157.93 175.21 159.64
  C 170.56 161.70 167.80 167.74 166.32 172.49
  C 166.31 172.54 166.43 172.73 166.45 172.75
  Z"
/>
<path fill="#971937" d="
  M 999.8462 168.2717
  A 46.28 33.89 -51.3 0 1 997.3588 225.5795
  A 46.28 33.89 -51.3 0 1 941.9738 240.5083
  A 46.28 33.89 -51.3 0 1 944.4612 183.2005
  A 46.28 33.89 -51.3 0 1 999.8462 168.2717
  Z
  M 956.42 237.58
  C 963.82 241.55 972.35 233.99 976.66 228.10
  Q 982.91 219.56 986.40 210.16
  C 990.15 200.04 992.40 191.29 991.10 180.95
  C 989.33 166.92 975.59 169.59 968.42 176.93
  Q 959.86 185.69 955.47 197.96
  C 951.64 208.66 949.41 218.70 951.34 229.69
  C 951.88 232.77 953.92 236.24 956.42 237.58
  Z"
/>
<path fill="#971937" d="
  M 1083.7519 168.2820
  A 46.24 34.05 -51.6 0 1 1081.7148 225.6701
  A 46.24 34.05 -51.6 0 1 1026.3081 240.7580
  A 46.24 34.05 -51.6 0 1 1028.3452 183.3699
  A 46.24 34.05 -51.6 0 1 1083.7519 168.2820
  Z
  M 1068.8891 170.7511
  A 36.46 16.67 -68.1 0 0 1039.8230 198.3623
  A 36.46 16.67 -68.1 0 0 1041.6909 238.4089
  A 36.46 16.67 -68.1 0 0 1070.7570 210.7977
  A 36.46 16.67 -68.1 0 0 1068.8891 170.7511
  Z"
/>
<path fill="#971937" d="
  M 1133.09 178.00
  A 0.35 0.35 0.0 0 0 1133.72 178.30
  Q 1140.27 168.23 1151.23 164.28
  C 1162.47 160.22 1177.65 165.62 1177.11 179.81
  A 0.40 0.40 0.0 0 0 1177.83 180.07
  Q 1181.14 175.77 1185.55 171.87
  C 1194.31 164.11 1210.11 159.21 1219.90 167.38
  C 1226.50 172.89 1224.59 183.13 1222.11 190.58
  Q 1215.25 211.12 1210.29 226.30
  Q 1209.26 229.47 1208.88 233.63
  A 1.96 1.89 38.2 0 0 1209.00 234.49
  C 1210.93 239.52 1222.50 231.62 1224.41 230.12
  A 0.76 0.75 -40.3 0 1 1225.43 230.20
  Q 1226.69 231.56 1227.45 233.65
  A 0.96 0.95 57.3 0 1 1227.24 234.62
  Q 1217.76 244.59 1204.95 246.22
  Q 1202.56 246.52 1198.10 245.13
  C 1186.96 241.64 1192.89 224.44 1195.45 216.44
  Q 1201.73 196.81 1205.57 185.77
  Q 1207.82 179.30 1204.16 175.96
  C 1200.12 172.29 1193.78 174.27 1189.43 177.17
  Q 1180.48 183.15 1176.40 190.36
  A 4.45 4.25 -23.1 0 0 1176.06 191.15
  L 1160.06 243.07
  A 0.91 0.91 0.0 0 1 1159.19 243.71
  L 1142.68 243.71
  A 0.48 0.48 0.0 0 1 1142.22 243.09
  Q 1149.14 219.05 1158.67 188.40
  C 1160.25 183.32 1161.09 175.52 1154.06 173.47
  A 3.25 3.07 49.5 0 0 1152.95 173.35
  C 1142.87 174.03 1134.50 182.77 1130.26 191.19
  Q 1128.83 194.01 1124.09 209.95
  Q 1119.07 226.84 1114.04 242.91
  A 1.14 1.13 -81.2 0 1 1112.96 243.71
  L 1096.49 243.71
  A 0.41 0.41 0.0 0 1 1096.10 243.19
  Q 1106.19 208.93 1114.10 180.06
  Q 1114.97 176.91 1111.92 175.27
  A 1.67 1.62 60.0 0 0 1111.22 175.07
  L 1107.01 174.87
  A 0.90 0.90 0.0 0 1 1106.16 173.90
  Q 1106.53 168.81 1111.83 167.90
  Q 1126.40 165.37 1137.15 162.60
  A 0.43 0.42 -88.4 0 1 1137.66 163.14
  L 1133.09 178.00
  Z"
/>
<path fill="#971937" d="
  M 430.05 208.71
  Q 429.23 215.25 430.68 221.56
  C 432.01 227.35 436.11 230.58 442.03 231.33
  C 448.81 232.19 453.68 230.35 459.36 226.59
  Q 465.44 222.56 471.03 217.67
  A 0.68 0.68 0.0 0 1 471.93 217.67
  Q 473.31 218.91 473.79 220.32
  A 1.15 1.15 0.0 0 1 473.65 221.33
  C 463.26 236.35 447.99 244.69 429.55 241.18
  C 422.87 239.91 416.71 235.34 414.48 229.31
  C 409.17 215.01 414.69 197.45 423.60 185.70
  Q 436.48 168.72 457.37 167.62
  C 466.10 167.16 476.03 171.32 476.21 181.23
  C 476.42 192.25 467.83 198.02 458.59 201.56
  Q 445.34 206.63 430.83 207.96
  A 0.87 0.86 -88.7 0 0 430.05 208.71
  Z
  M 431.82 201.20
  Q 432.07 201.50 432.47 201.44
  Q 443.40 200.02 452.79 195.11
  Q 458.61 192.07 460.96 186.66
  Q 463.39 181.06 460.63 177.68
  Q 457.86 174.29 451.89 175.55
  Q 446.12 176.77 441.98 181.87
  Q 435.29 190.09 431.71 200.51
  Q 431.58 200.90 431.82 201.20
  Z"
/>
<path fill="#971937" d="
  M 665.91 170.00
  C 675.14 174.51 678.48 183.47 678.37 193.71
  C 678.17 211.79 667.73 227.70 652.33 236.56
  Q 641.08 243.03 629.33 241.57
  C 613.05 239.55 607.54 225.28 610.37 210.62
  C 614.40 189.76 631.69 168.02 654.84 167.68
  Q 660.97 167.60 665.91 170.00
  Z
  M 656.2949 175.3006
  A 32.03 14.47 -68.2 0 0 630.9648 199.6663
  A 32.03 14.47 -68.2 0 0 632.5051 234.7794
  A 32.03 14.47 -68.2 0 0 657.8352 210.4137
  A 32.03 14.47 -68.2 0 0 656.2949 175.3006
  Z"
/>
</svg>
